# xmcd CD database file
#
# Track frame offsets:
#	150
#	19872
#	39435
#	57327
#	79017
#	99780
#	133525
#	153322
#	169265
#	189137
#
# Disc length: 2971 seconds
#
# Revision: 4
# Processed by: cddbd v1.5.2PL0 Copyright (c) Steve Scherf et al.
# Submitted via: CDex 1.78
#
DISCID=6e0b990a
DTITLE=trf - HYPER MIX III
DYEAR=1994
DGENRE=Euro-Techno
TTITLE0=Silver and Gold dance (BATTERY MIX)
TTITLE1=Feel the CENTURY (HARD CORE ODESSEY)
TTITLE2=WORLD GROOVE (Esprit da Funk Mini Mix)
TTITLE3=SAMUI YORU DAKARA (EURO-HOUSE MIX)
TTITLE4=Beauty and Beast (TRANCE ACTIVE 40627)
TTITLE5=Waiting Waves (NEO-RAGA MIX)
TTITLE6=Time after Time (LAND-MARK MIX)
TTITLE7=Silver and Gold dance (WAKO'S POWER MIX)
TTITLE8=Impression of trf (VERSION 3:1:9)
TTITLE9=WORLD GROOVE (Esprit da Funk Maxi Mix)
EXTD=YEAR: 1994
EXTT0=
EXTT1=
EXTT2=
EXTT3=
EXTT4=
EXTT5=
EXTT6=
EXTT7=
EXTT8=
EXTT9=
PLAYORDER=
